<svg width="97" height="114" viewBox="0 0 97 114" fill="none" xmlns="http://www.w3.org/2000/svg">
<path d="M48.5045 56.8261C51.0686 56.8261 53.1472 56.3657 53.1472 55.7978C53.1472 55.2299 51.0686 54.7695 48.5045 54.7695C45.9404 54.7695 43.8618 55.2299 43.8618 55.7978C43.8618 56.3657 45.9404 56.8261 48.5045 56.8261Z" fill="#000007"/>
<path d="M39.9058 45.6365C41.4504 47.3707 43.0311 48.4425 46.1834 48.4425H50.8261C53.9694 48.4425 55.5591 47.3707 57.1037 45.6365C61.2767 40.9483 65.9285 34.6827 68.4846 30.8572C73.2267 23.7463 74.0938 15.6421 70.7428 9.7251C68.2317 5.28955 62.3425 0 48.5048 0C34.667 0 28.7778 5.28955 26.2667 9.7251C22.9157 15.6508 23.7828 23.7463 28.5249 30.8572C31.0811 34.6914 35.7328 40.9483 39.9058 45.6365ZM33.2398 24.9925C33.5198 23.0231 34.6399 22.7268 34.8928 24.2779C35.507 28.0076 36.6722 30.6654 38.2258 32.966C39.111 34.2819 40.1407 34.4213 39.7252 33.1403C38.0451 27.9466 36.7896 21.7421 39.5084 15.4155C40.0955 14.0474 41.2426 13.3328 41.1884 15.1279C41.0078 20.9839 41.4684 25.1668 43.2388 29.2189C43.862 30.648 44.9008 30.7874 44.6388 28.7135C43.6904 20.9665 44.4763 14.4482 46.7344 9.93425C47.3305 8.74911 48.4867 7.91254 48.4867 9.93425C48.4867 15.8338 48.4867 18.8925 48.4867 24.6875C48.4867 26.3519 49.1822 26.4303 49.7964 24.9576C51.8287 20.0428 52.2171 13.8731 52.1539 7.5204C52.1358 5.43769 52.8765 5.27212 53.8881 7.11083C54.9901 9.09768 55.7127 12.261 55.5591 16.7662C55.4869 18.9535 56.7153 18.0124 57.1579 16.3654C57.8986 13.6117 58.2237 9.99524 57.3927 5.97798C57.0495 4.3397 57.7811 4.23513 58.7476 5.26341C59.398 5.96055 60.6264 7.99968 61.069 9.00182C61.9361 10.98 62.5774 10.2741 62.3877 8.49639C62.2161 6.85812 61.7825 5.29826 60.9154 4.19155C60.5902 3.78198 60.9786 3.70356 61.2316 3.80813C72.8383 8.64454 73.4525 20.5656 67.0936 30.0903C64.4291 34.0814 59.8857 40.1378 55.9927 44.5124C54.5927 46.0897 53.3371 46.8478 50.7809 46.8478H46.2105C43.6543 46.8478 42.4078 46.0897 40.9987 44.5124C39.7523 43.1094 38.4335 41.5321 37.1328 39.9026C36.2477 38.7871 35.4889 37.5846 34.947 36.2774C33.285 32.2776 32.8695 27.476 33.2218 25.0012L33.2398 24.9925Z" fill="#000007"/>
<path d="M40.5108 72.2758C40.9443 72.2758 41.1521 72.0667 41.1521 71.6571V69.3043C41.1521 68.886 40.9353 68.6855 40.5108 68.6855H32.2731C31.8396 68.6855 31.6318 68.8947 31.6318 69.3043V87.6303C31.6318 88.0486 31.8486 88.249 32.2731 88.249H40.5108C40.9443 88.249 41.1521 88.0399 41.1521 87.6303V85.2775C41.1521 84.8592 40.9353 84.6588 40.5108 84.6588H35.7326V79.9966H39.7792C40.2127 79.9966 40.4205 79.7875 40.4205 79.3779V77.2168C40.4205 76.7985 40.2037 76.5981 39.7792 76.5981H35.7326V72.2758H40.5108Z" fill="#000007"/>
<path d="M72.1156 68.6855H70.8601C70.4265 68.6855 70.2188 68.8947 70.2188 69.3043V87.6303C70.2188 88.0486 70.4355 88.249 70.8601 88.249H72.1156C72.5491 88.249 72.7569 88.0399 72.7569 87.6303V79.3779H78.357V87.6303C78.357 88.0486 78.5738 88.249 78.9983 88.249H80.2539C80.6874 88.249 80.8952 88.0399 80.8952 87.6303V69.3043C80.8952 68.886 80.6784 68.6855 80.2539 68.6855H78.9983C78.5648 68.6855 78.357 68.8947 78.357 69.3043V77.0251H72.7569V69.3043C72.7569 68.886 72.5401 68.6855 72.1156 68.6855Z" fill="#000007"/>
<path d="M85.7002 88.1967C86.6125 88.3361 87.579 88.4233 88.7442 88.4233C94.1005 88.4233 94.3624 83.1686 94.3624 78.2538C94.3624 75.4739 93.8747 71.8662 92.8449 69.4611C92.6643 69.0254 92.3482 68.8075 91.7701 68.7378C90.8397 68.5984 89.8733 68.5112 88.9248 68.5112C83.397 68.5112 83.126 73.5568 83.126 78.6023C83.126 81.9835 83.6408 85.1119 84.6163 87.4124C84.8151 87.8917 85.1493 88.1357 85.7093 88.2054L85.7002 88.1967ZM89.0694 70.4196C89.7287 70.4196 90.3429 70.4545 91.0023 70.5416C91.6798 71.8226 92.3662 74.6199 92.3662 78.1753C92.3662 84.223 91.6346 86.48 88.6448 86.48C87.6964 86.48 87.2087 86.4452 86.459 86.358C85.6009 84.3712 85.1312 81.8179 85.1312 78.5849C85.1312 72.3455 85.8809 70.4109 89.0694 70.4109V70.4196Z" fill="#000007"/>
<path d="M63.4715 68.6855H61.3399C60.3192 68.6855 59.7501 69.1561 59.5514 70.1844L56.1642 87.5955C56.0739 88.0486 56.2907 88.249 56.7333 88.249H58.7746C59.1901 88.249 59.3979 88.0922 59.4701 87.6826L60.0934 84.1446H64.6728L65.3684 87.6826C65.4406 88.0835 65.6574 88.249 66.0639 88.249H68.0871C68.5388 88.249 68.7465 88.0225 68.6562 87.578L65.2329 70.1844C65.0342 69.1648 64.4651 68.6855 63.4444 68.6855H63.4715ZM60.6082 81.2079L62.0986 72.2932H62.7399L64.1761 81.2079H60.6173H60.6082Z" fill="#000007"/>
<path d="M51.2776 87.5606C51.2776 87.9789 51.4944 88.1793 51.9189 88.1793H54.0506C54.4841 88.1793 54.6919 87.9702 54.6919 87.5606V69.3043C54.6919 68.886 54.4751 68.6855 54.0506 68.6855H47.1949C45.7949 68.6855 45.0271 69.374 44.9187 70.7421L44.169 81.0859C44.0245 83.0902 43.7535 84.6588 42.5974 84.6588C42.1638 84.6588 42.0464 84.8505 42.0464 85.2775V87.6303C42.0464 88.0486 42.2632 88.249 42.6877 88.249H42.8142C46.6259 88.249 47.0775 85.7306 47.3575 82.0794L48.1433 72.1974C48.1795 71.8488 48.3782 71.6833 48.7124 71.6833H51.2686V87.5606H51.2776Z" fill="#000007"/>
<path d="M59.1359 105.469C58.8469 105.469 58.6301 105.678 58.6211 105.939C58.5127 107.421 58.4585 110.88 55.8842 110.88C55.3332 110.88 54.8816 110.845 54.3848 110.775C53.6893 108.98 53.4906 106.61 53.4906 103.848C53.4906 99.8391 53.6713 97.0418 56.2636 97.0418C56.661 97.0418 57.2301 97.0767 57.5914 97.1464C58.1062 98.3054 58.2146 100.31 58.2869 101.347C58.3049 101.626 58.4856 101.782 58.7566 101.782C61.105 101.782 61.2766 97.9307 60.545 95.1857C60.3824 94.6367 60.0753 94.3753 59.5243 94.2707C58.4856 94.0964 57.3385 94.0093 56.3178 94.0093C50.5912 94.0093 49.9228 98.9328 49.977 103.856C49.977 107.255 50.4647 110.418 51.5848 112.841C51.7835 113.337 52.0996 113.564 52.6416 113.651C53.5538 113.808 54.7913 113.93 56.0107 113.93C62.2431 113.93 61.936 105.486 59.145 105.486L59.1359 105.469Z" fill="#000007"/>
<path d="M73.7594 94.0705C73.5607 94.0531 73.362 94.0356 73.1723 94.0356C71.3658 94.0356 70.5438 95.0029 69.9296 96.8852L68.9451 99.9265C68.5296 101.225 68.1593 102.175 67.0302 102.175H66.2805V94.8025C66.2805 94.3842 66.0637 94.1838 65.6392 94.1838H63.6882C63.2546 94.1838 63.0469 94.3929 63.0469 94.8025V113.129C63.0469 113.547 63.2637 113.747 63.6882 113.747H65.6392C66.0728 113.747 66.2805 113.538 66.2805 113.129V105.146H67.0302C68.1593 105.146 68.6199 106.201 68.9451 107.517L69.7851 110.872C70.3 112.911 71.2845 113.895 73.1 113.895C73.3168 113.895 73.5336 113.878 73.7594 113.861C74.1569 113.808 74.3285 113.582 74.3285 113.19V111.499C74.3285 111.098 74.0575 110.88 73.7775 110.88C73.2626 110.88 72.811 110.427 72.6484 109.826L71.7181 106.288C71.3748 104.989 70.86 104.092 69.8935 103.595V103.247C70.8961 102.898 71.2574 102.279 71.5916 101.19L72.54 98.1313C72.7207 97.5475 73.091 97.0769 73.7955 97.0769C74.1026 97.0769 74.3285 96.9026 74.3285 96.4582V94.7676C74.3285 94.3668 74.1478 94.1489 73.7594 94.0966V94.0705Z" fill="#000007"/>
<path d="M96.3587 96.109C96.7923 96.109 97.0001 95.8998 97.0001 95.4902V94.8018C97.0001 94.3835 96.7833 94.1831 96.3587 94.1831H88.9069C88.4734 94.1831 88.2656 94.3922 88.2656 94.8018V113.128C88.2656 113.546 88.4824 113.747 88.9069 113.747H96.3587C96.7923 113.747 97.0001 113.537 97.0001 113.128V112.474C97.0001 112.056 96.7833 111.856 96.3587 111.856H90.325V104.649H95.0671C95.5007 104.649 95.7084 104.44 95.7084 104.03V103.377C95.7084 102.958 95.4916 102.758 95.0671 102.758H90.325V96.1264H96.3587V96.109Z" fill="#000007"/>
<path d="M83.7675 103.621V103.273C85.3211 102.515 85.8991 100.807 85.8991 99.2295C85.8991 96.2754 83.7675 94.1665 80.5971 94.1665H76.8034C76.3699 94.1665 76.1621 94.3756 76.1621 94.7852V113.111C76.1621 113.53 76.3789 113.73 76.8034 113.73H80.7597C84.3185 113.73 86.4501 111.281 86.4501 108.205C86.4501 106.358 85.6824 104.266 83.7675 103.613V103.621ZM80.5248 111.482H78.7364V96.4584H80.3442C82.2229 96.4584 83.37 97.6522 83.37 99.6565C83.37 101.434 82.6384 102.436 81.5635 102.645C80.8319 102.802 80.5609 103.212 80.5609 103.717C80.5609 104.249 80.9222 104.719 81.5274 104.789C82.801 104.929 83.8397 105.896 83.8397 107.952C83.8397 110.009 82.6023 111.49 80.5248 111.49V111.482Z" fill="#000007"/>
<path d="M10.0622 103.691V103.343C11.7603 102.41 12.2661 100.685 12.2661 99.2121C12.2661 96.1882 9.95382 94.1665 6.43114 94.1665H0.641308C0.207748 94.1665 0 94.3756 0 94.7852V113.111C0 113.53 0.21678 113.73 0.641308 113.73H6.74728C10.0803 113.73 12.6184 111.395 12.6184 108.101C12.6184 106.323 12.0132 104.406 10.0622 103.682V103.691ZM5.87113 109.617H5.10336V98.3058H5.63628C6.71115 98.3058 7.18987 99.2382 7.18987 100.38C7.18987 101.068 6.97309 101.844 6.56663 102.227C6.15113 102.628 5.76274 102.985 5.76274 103.726C5.76274 104.467 6.12404 104.92 6.63889 105.26C7.24407 105.643 7.46085 106.576 7.46085 107.281C7.46085 108.51 6.94599 109.617 5.87113 109.617Z" fill="#000007"/>
<path d="M19.3385 91.3432V88.2496H25.8239V91.3432C25.8239 91.7614 26.0406 91.9619 26.4652 91.9619H29.4911C29.9246 91.9619 30.1324 91.7527 30.1324 91.3432V84.8859C30.1324 84.4676 29.9156 84.2672 29.4911 84.2672H28.5426V69.3135C28.5426 68.8953 28.3259 68.6948 27.9013 68.6948H20.314C18.7424 68.6948 17.7036 69.3658 17.5772 71.0825L16.8636 80.2673C16.701 82.3413 16.5746 84.2759 15.292 84.2759C15.0933 84.2759 15.0029 84.4676 15.0029 84.8946V91.3519C15.0029 91.7702 15.2197 91.9706 15.6442 91.9706H18.7063C19.1398 91.9706 19.3476 91.7614 19.3476 91.3519L19.3385 91.3432ZM19.0134 83.8489C20.5037 83.5352 20.9644 82.2455 21.0908 80.3632L21.5786 73.3482C21.6147 72.8515 21.8496 72.6598 22.4005 72.6598H23.9722V84.2672H18.9953L19.0134 83.8489Z" fill="#000007"/>
<path d="M11.39 79.6306C11.0648 79.6306 10.8209 79.8398 10.8028 80.1448C10.7848 80.3713 10.7848 80.6589 10.7667 80.9726C10.7667 82.3407 10.7486 83.9616 8.94215 83.9616C8.49052 83.9616 8.13825 83.9267 7.75889 83.8396C7.20791 82.0445 7.06339 80.4236 7.06339 78.3496C7.06339 75.3083 7.20791 72.9642 8.99634 72.9642C9.35764 72.9642 9.51119 72.9991 9.8183 73.0862C10.3873 74.2452 10.5138 75.2648 10.6041 76.3018C10.6222 76.5806 10.839 76.7375 11.1551 76.7375C13.8197 76.7375 14.5242 72.6766 13.6932 69.6877C13.5307 69.1387 13.2055 68.8947 12.6364 68.8075C11.5254 68.6158 10.4144 68.5112 9.0957 68.5112C2.80908 68.5112 1.71615 73.3651 1.78841 78.3583C1.8426 81.7743 2.32132 84.9376 3.61297 87.3776C3.84782 87.8481 4.16395 88.0486 4.7059 88.1357C5.69045 88.31 7.03629 88.432 8.58988 88.432C16.0236 88.432 15.4455 79.6393 11.3809 79.6393L11.39 79.6306Z" fill="#000007"/>
<path d="M45.2981 94.2621C44.2774 94.053 43.0219 93.9136 42.0554 93.9136C35.6242 93.9136 35.3081 99.116 35.3081 104.083C35.3081 107.499 35.9133 110.628 37.0062 112.841C37.223 113.312 37.5391 113.547 38.063 113.651C39.0476 113.86 40.3211 114 41.5225 114C47.7549 114 48.053 108.667 48.053 103.743C48.053 100.946 47.52 97.3208 46.3187 94.9854C46.12 94.5671 45.8129 94.3667 45.2981 94.2621ZM41.7031 110.253C41.1341 110.253 40.6644 110.183 40.3934 110.096C39.8605 108.693 39.5353 106.366 39.5353 104.083C39.5353 99.665 39.9327 97.6433 41.9199 97.6433C42.227 97.6433 42.6154 97.6781 43.0128 97.7478C43.4103 98.6106 43.8348 101.286 43.8348 103.796C43.8348 108.1 43.4735 110.253 41.7031 110.253Z" fill="#000007"/>
<path d="M32.4449 94.1748H29.8345C28.0641 94.1748 27.0435 95.0375 26.6822 96.7629L25.535 102.375H25.1557L23.9905 96.7629C23.6292 95.0549 22.6085 94.1748 20.8381 94.1748H18.1735C17.74 94.1748 17.5322 94.3839 17.5322 94.7935V113.12C17.5322 113.538 17.749 113.738 18.1735 113.738H21.073C21.5065 113.738 21.7143 113.529 21.7143 113.12V100.353H22.0936L23.5298 106.436C23.7466 107.351 24.2976 107.969 25.264 107.969C26.2305 107.969 26.7996 107.368 27.0344 106.453L28.5519 100.353H28.9493V113.12C28.9493 113.538 29.1661 113.738 29.5906 113.738H32.4359C32.8694 113.738 33.0772 113.529 33.0772 113.12V94.7935C33.0772 94.3752 32.8604 94.1748 32.4359 94.1748H32.4449Z" fill="#000007"/>
</svg>
