<svg width="25" height="25" viewBox="0 0 25 25" fill="none" xmlns="http://www.w3.org/2000/svg">
<path d="M4.35 9.11998C4.20404 8.4625 4.22646 7.77882 4.41516 7.13231C4.60386 6.48581 4.95275 5.89742 5.42947 5.4217C5.90619 4.94597 6.49531 4.59832 7.14221 4.41097C7.78911 4.22362 8.47284 4.20264 9.13 4.34998C9.49171 3.78428 9.99001 3.31873 10.579 2.99626C11.1679 2.67379 11.8285 2.50476 12.5 2.50476C13.1715 2.50476 13.8321 2.67379 14.4211 2.99626C15.01 3.31873 15.5083 3.78428 15.87 4.34998C16.5282 4.202 17.2131 4.22288 17.861 4.41069C18.5089 4.59849 19.0988 4.94712 19.5758 5.42413C20.0529 5.90114 20.4015 6.49105 20.5893 7.13898C20.7771 7.78691 20.798 8.47181 20.65 9.12998C21.2157 9.49168 21.6812 9.98998 22.0037 10.5789C22.3262 11.1679 22.4952 11.8285 22.4952 12.5C22.4952 13.1714 22.3262 13.8321 22.0037 14.421C21.6812 15.01 21.2157 15.5083 20.65 15.87C20.7973 16.5271 20.7764 17.2109 20.589 17.8578C20.4017 18.5047 20.054 19.0938 19.5783 19.5705C19.1026 20.0472 18.5142 20.3961 17.8677 20.5848C17.2212 20.7735 16.5375 20.7959 15.88 20.65C15.5188 21.2178 15.0201 21.6854 14.4301 22.0093C13.8402 22.3332 13.178 22.503 12.505 22.503C11.832 22.503 11.1698 22.3332 10.5799 22.0093C9.98992 21.6854 9.49124 21.2178 9.13 20.65C8.47284 20.7973 7.78911 20.7763 7.14221 20.589C6.49531 20.4016 5.90619 20.054 5.42947 19.5783C4.95275 19.1025 4.60386 18.5141 4.41516 17.8676C4.22646 17.2211 4.20404 16.5374 4.35 15.88C3.77996 15.5192 3.31042 15.0201 2.98505 14.4292C2.65969 13.8382 2.48907 13.1746 2.48907 12.5C2.48907 11.8254 2.65969 11.1617 2.98505 10.5708C3.31042 9.9798 3.77996 9.48073 4.35 9.11998Z" stroke="white" stroke-width="2" stroke-linecap="round" stroke-linejoin="round"/>
<path d="M9.5 12.5L11.5 14.5L15.5 10.5" stroke="white" stroke-width="2" stroke-linecap="round" stroke-linejoin="round"/>
</svg>
