<svg width="50" height="48" viewBox="0 0 50 48" fill="none" xmlns="http://www.w3.org/2000/svg"><g clip-path="url(#a)"><circle cx="24.03" cy="24" r="24" fill="#000"/><path d="M41.188 24.171v-.342c-7.29-.229-10.619-.4-13.288-2.915-2.587-2.594-2.775-5.828-3-12.914h-.353c-.235 7.086-.411 10.32-2.998 12.914-2.67 2.515-5.998 2.697-13.288 2.915v.342c7.29.229 10.618.4 13.288 2.915 2.587 2.594 2.775 5.828 2.998 12.914h.353c.235-7.086.412-10.32 2.999-12.914 2.67-2.515 5.997-2.697 13.288-2.915Z" fill="#fff"/></g><defs><clipPath id="a"><path fill="#fff" transform="translate(.03)" d="M0 0h49.389v48H0z"/></clipPath></defs></svg>