<svg width="50" height="48" viewBox="0 0 50 48" fill="none" xmlns="http://www.w3.org/2000/svg">
<g clip-path="url(#clip0_91_104)">
<circle cx="24.0303" cy="24" r="24" fill="black"/>
<path d="M41.1878 24.1714V23.8286C33.8971 23.6 30.5692 23.4286 27.8998 20.9143C25.3128 18.32 25.1246 15.0857 24.9012 8H24.5484C24.3132 15.0857 24.1368 18.32 21.5498 20.9143C18.8804 23.4286 15.5525 23.6114 8.26178 23.8286V24.1714C15.5525 24.4 18.8804 24.5714 21.5498 27.0857C24.1368 29.68 24.325 32.9143 24.5484 40H24.9012C25.1364 32.9143 25.3128 29.68 27.8998 27.0857C30.5692 24.5714 33.8971 24.3886 41.1878 24.1714Z" fill="white"/>
</g>
<defs>
<clipPath id="clip0_91_104">
<rect width="49.3891" height="48" fill="white" transform="translate(0.0302734)"/>
</clipPath>
</defs>
</svg>
