<svg width="97" height="114" viewBox="0 0 97 114" fill="none" xmlns="http://www.w3.org/2000/svg"><path d="M48.505 56.826c2.564 0 4.642-.46 4.642-1.028 0-.568-2.078-1.029-4.642-1.029-2.565 0-4.643.46-4.643 1.029 0 .568 2.078 1.028 4.642 1.028Zm-8.599-11.19c1.544 1.735 3.125 2.806 6.277 2.806h4.643c3.143 0 4.733-1.071 6.278-2.806 4.173-4.688 8.825-10.953 11.38-14.779 4.743-7.11 5.61-15.215 2.259-21.132C68.232 5.29 62.343 0 48.505 0S28.778 5.29 26.267 9.725c-3.351 5.926-2.484 14.021 2.258 21.132 2.556 3.834 7.208 10.091 11.38 14.78ZM33.24 24.992c.28-1.969 1.4-2.265 1.653-.714.614 3.73 1.78 6.387 3.333 8.688.885 1.316 1.915 1.455 1.5.174-1.68-5.193-2.936-11.398-.218-17.724.587-1.369 1.735-2.083 1.68-.288-.18 5.856.28 10.039 2.05 14.09.624 1.43 1.663 1.57 1.4-.505-.948-7.747-.162-14.265 2.096-18.779.596-1.185 1.753-2.021 1.753 0v14.754c0 1.664.695 1.742 1.31.27 2.032-4.915 2.42-11.085 2.357-17.438-.018-2.082.722-2.248 1.734-.41 1.102 1.988 1.825 5.151 1.671 9.656-.072 2.188 1.156 1.246 1.599-.4.74-2.754 1.066-6.37.235-10.388-.343-1.638.388-1.743 1.355-.715.65.698 1.878 2.737 2.321 3.739.867 1.978 1.508 1.272 1.319-.506-.172-1.638-.605-3.198-1.473-4.304-.325-.41.064-.488.317-.384 11.606 4.837 12.22 16.758 5.862 26.282-2.665 3.991-7.208 10.048-11.101 14.422-1.4 1.578-2.656 2.336-5.212 2.336h-4.57c-2.557 0-3.803-.758-5.212-2.336a116.022 116.022 0 0 1-3.866-4.61c-.885-1.115-1.644-2.317-2.186-3.625-1.662-4-2.078-8.801-1.725-11.276l.018-.009Zm7.27 47.284c.434 0 .642-.21.642-.619v-2.353c0-.418-.217-.618-.641-.618h-8.238c-.433 0-.641.209-.641.618V87.63c0 .419.217.619.641.619h8.238c.433 0 .641-.21.641-.619v-2.352c0-.419-.217-.62-.641-.62h-4.778v-4.661h4.046c.434 0 .641-.21.641-.62v-2.16c0-.418-.216-.619-.64-.619h-4.047v-4.322h4.778Zm31.606-3.59H70.86c-.433 0-.641.209-.641.618V87.63c0 .419.217.619.641.619h1.256c.433 0 .64-.21.64-.619v-8.252h5.601v8.252c0 .419.217.619.641.619h1.256c.433 0 .641-.21.641-.619V69.304c0-.418-.217-.618-.641-.618h-1.256c-.433 0-.641.209-.641.618v7.721h-5.6v-7.72c0-.419-.217-.62-.641-.62ZM85.7 88.197c.912.14 1.879.226 3.044.226 5.356 0 5.618-5.254 5.618-10.17 0-2.78-.487-6.387-1.517-8.792-.18-.436-.497-.653-1.075-.723a19.37 19.37 0 0 0-2.845-.227c-5.528 0-5.799 5.046-5.799 10.091 0 3.382.515 6.51 1.49 8.81.2.48.533.724 1.093.793l-.009-.008Zm3.37-17.777c.659 0 1.273.034 1.932.122.678 1.28 1.364 4.078 1.364 7.633 0 6.048-.731 8.305-3.721 8.305-.949 0-1.436-.035-2.186-.122-.858-1.987-1.328-4.54-1.328-7.773 0-6.24.75-8.174 3.938-8.174v.009Zm-25.599-1.734H61.34c-1.02 0-1.59.47-1.789 1.498l-3.387 17.412c-.09.453.127.653.57.653h2.04c.416 0 .624-.157.696-.566l.623-3.538h4.58l.695 3.538c.073.4.29.566.696.566h2.023c.452 0 .66-.227.57-.671l-3.424-17.394c-.199-1.02-.768-1.498-1.789-1.498h.027Zm-2.863 12.522 1.49-8.915h.642l1.436 8.915h-3.568Zm-9.33 6.352c0 .419.216.62.64.62h2.133c.433 0 .64-.21.64-.62V69.305c0-.418-.216-.618-.64-.618h-6.856c-1.4 0-2.168.688-2.276 2.056l-.75 10.344c-.144 2.004-.415 3.573-1.572 3.573-.433 0-.55.191-.55.618v2.353c0 .419.216.619.64.619h.127c3.812 0 4.264-2.518 4.544-6.17l.785-9.882c.036-.348.235-.514.57-.514h2.556v15.878h.009Zm7.858 17.909c-.29 0-.506.209-.515.47-.108 1.482-.163 4.941-2.737 4.941-.55 0-1.002-.035-1.5-.105-.695-1.795-.893-4.165-.893-6.927 0-4.009.18-6.806 2.773-6.806.397 0 .966.035 1.327.104.515 1.16.624 3.164.696 4.201.018.279.199.435.47.435 2.348 0 2.52-3.851 1.788-6.596-.163-.55-.47-.81-1.02-.915a20.059 20.059 0 0 0-3.207-.262c-5.727 0-6.395 4.924-6.341 9.847 0 3.399.488 6.562 1.608 8.985.198.496.515.723 1.057.81a20.9 20.9 0 0 0 3.369.279c6.232 0 5.925-8.444 3.134-8.444l-.01-.017ZM73.76 94.07c-.2-.017-.398-.034-.588-.034-1.806 0-2.628.967-3.242 2.85l-.985 3.04c-.415 1.299-.786 2.249-1.915 2.249h-.75v-7.373c0-.418-.216-.618-.64-.618h-1.952c-.433 0-.641.209-.641.618v18.327c0 .418.217.618.641.618h1.951c.434 0 .642-.209.642-.618v-7.983h.75c1.128 0 1.589 1.055 1.914 2.371l.84 3.355c.515 2.039 1.5 3.023 3.315 3.023.217 0 .434-.017.66-.034.397-.053.569-.279.569-.671v-1.691c0-.401-.271-.619-.551-.619-.515 0-.967-.453-1.13-1.054l-.93-3.538c-.343-1.299-.858-2.196-1.825-2.693v-.348c1.003-.349 1.364-.968 1.699-2.057l.948-3.059c.18-.584.551-1.054 1.255-1.054.308 0 .534-.174.534-.619v-1.69c0-.401-.181-.62-.57-.671v-.026Zm22.599 2.039c.433 0 .641-.21.641-.619v-.688c0-.419-.217-.619-.641-.619h-7.452c-.434 0-.641.21-.641.619v18.326c0 .418.216.619.64.619h7.453c.433 0 .641-.21.641-.619v-.654c0-.418-.217-.618-.641-.618h-6.034v-7.207h4.742c.434 0 .641-.209.641-.619v-.653c0-.419-.216-.619-.64-.619h-4.743v-6.632h6.034v-.017Zm-12.592 7.512v-.348c1.554-.758 2.132-2.466 2.132-4.043 0-2.955-2.132-5.064-5.302-5.064h-3.794c-.433 0-.64.21-.64.62v18.325c0 .419.216.619.64.619h3.957c3.558 0 5.69-2.449 5.69-5.525 0-1.847-.768-3.939-2.683-4.592v.008Zm-3.242 7.861h-1.789V96.458h1.608c1.879 0 3.026 1.194 3.026 3.198 0 1.778-.732 2.78-1.806 2.989-.732.157-1.003.567-1.003 1.072 0 .532.361 1.002.966 1.072 1.274.14 2.313 1.107 2.313 3.163 0 2.057-1.238 3.538-3.315 3.538v-.008Zm-70.463-7.791v-.348c1.698-.933 2.204-2.658 2.204-4.13 0-3.025-2.312-5.046-5.835-5.046H.641c-.433 0-.641.209-.641.618v18.326c0 .419.217.619.641.619h6.106c3.333 0 5.871-2.335 5.871-5.629 0-1.778-.605-3.695-2.556-4.419v.009Zm-4.19 5.926h-.769V98.306h.533c1.075 0 1.554.932 1.554 2.074 0 .688-.217 1.464-.623 1.847-.416.401-.804.758-.804 1.499 0 .741.361 1.194.876 1.534.605.383.822 1.316.822 2.021 0 1.229-.515 2.336-1.59 2.336Zm13.466-18.274V88.25h6.486v3.093c0 .418.217.619.641.619h3.026c.434 0 .641-.21.641-.619v-6.457c0-.418-.216-.619-.64-.619h-.95V69.314c0-.419-.216-.62-.64-.62h-7.588c-1.572 0-2.61.672-2.737 2.388l-.713 9.185c-.163 2.074-.29 4.009-1.572 4.009-.199 0-.29.192-.29.619v6.457c0 .418.218.619.642.619h3.062c.434 0 .642-.21.642-.62l-.01-.008Zm-.325-7.494c1.49-.314 1.951-1.603 2.078-3.486l.488-7.015c.036-.496.27-.688.822-.688h1.571v11.607h-4.977l.018-.418Z" fill="#000007"/><path d="M11.39 79.63c-.325 0-.57.21-.587.515-.018.226-.018.514-.036.828 0 1.368-.018 2.989-1.825 2.989a5.03 5.03 0 0 1-1.183-.122c-.551-1.796-.696-3.416-.696-5.49 0-3.042.145-5.386 1.933-5.386.362 0 .515.035.822.122.57 1.16.696 2.179.786 3.216.018.279.235.435.551.435 2.665 0 3.37-4.06 2.538-7.05-.162-.548-.487-.792-1.057-.88a20.203 20.203 0 0 0-3.54-.296c-6.287 0-7.38 4.854-7.308 9.847.055 3.416.533 6.58 1.825 9.02.235.47.55.67 1.093.758.984.174 2.33.296 3.884.296 7.434 0 6.855-8.793 2.79-8.793l.01-.008Zm33.908 14.632c-1.02-.209-2.276-.348-3.243-.348-6.43 0-6.747 5.202-6.747 10.169 0 3.416.605 6.545 1.698 8.758.217.471.533.706 1.057.81a17.56 17.56 0 0 0 3.46.349c6.232 0 6.53-5.333 6.53-10.257 0-2.797-.533-6.422-1.734-8.758-.199-.418-.506-.618-1.02-.723Zm-3.595 15.991c-.569 0-1.039-.07-1.31-.157-.532-1.403-.858-3.73-.858-6.013 0-4.418.398-6.44 2.385-6.44.307 0 .695.035 1.093.105.397.863.822 3.538.822 6.048 0 4.304-.361 6.457-2.132 6.457Zm-9.258-16.078h-2.61c-1.77 0-2.791.862-3.153 2.588l-1.147 5.612h-.38l-1.165-5.612c-.36-1.708-1.381-2.588-3.152-2.588h-2.665c-.433 0-.64.209-.64.618v18.327c0 .418.216.618.64.618h2.9c.433 0 .641-.209.641-.618v-12.767h.38l1.436 6.083c.217.915.768 1.533 1.734 1.533s1.536-.601 1.77-1.516l1.518-6.1h.397v12.767c0 .418.217.618.642.618h2.845c.433 0 .641-.209.641-.618V94.793c0-.418-.217-.618-.641-.618h.009Z" fill="#000007"/></svg>