<svg width="49" height="48" viewBox="0 0 49 48" fill="none" xmlns="http://www.w3.org/2000/svg"><path d="M24.518 47.997C11.26 47.997.515 37.252.515 23.998.515 10.742 11.26 0 24.518 0c13.25 0 23.997 10.742 23.997 23.998 0 13.254-10.745 23.999-23.997 23.999Zm-.003-33.334a2.862 2.862 0 0 1 2.859 2.859 2.862 2.862 0 0 1-2.859 2.86 2.862 2.862 0 0 1-2.86-2.86 2.86 2.86 0 0 1 2.86-2.859Zm6.907 2.859c0-3.81-3.096-6.91-6.907-6.91s-6.91 3.1-6.91 6.91 3.099 6.907 6.91 6.907a6.912 6.912 0 0 0 6.907-6.907ZM27.31 30.066a13 13 0 0 0 4.012-1.66 2.026 2.026 0 0 0-2.155-3.43 8.772 8.772 0 0 1-9.305 0 2.026 2.026 0 0 0-2.158 3.43 12.947 12.947 0 0 0 4.013 1.66l-3.864 3.862a2.027 2.027 0 0 0 0 2.863 2.026 2.026 0 0 0 2.863 0l3.794-3.796 3.797 3.797a2.024 2.024 0 0 0 2.86-2.862l-3.857-3.864Z" fill="#0007B4"/></svg>