<svg width="48" height="48" viewBox="0 0 48 48" fill="none" xmlns="http://www.w3.org/2000/svg">
<path fill-rule="evenodd" clip-rule="evenodd" d="M23.7576 47.5152C36.8785 47.5152 47.5152 36.8785 47.5152 23.7576C47.5152 10.6366 36.8785 0 23.7576 0C10.6366 0 0 10.6366 0 23.7576C0 36.8785 10.6366 47.5152 23.7576 47.5152ZM10.6667 16.4848C10.882 26.8217 16.0505 33.0338 25.1119 33.0338H25.6256V27.1201C28.9552 27.4513 31.4731 29.8865 32.4835 33.0338H37.1883C35.8962 28.3293 32.5001 25.7284 30.3796 24.7345C32.5001 23.5087 35.4819 20.5269 36.1942 16.4848H31.9201C30.9925 19.7648 28.2429 22.7467 25.6256 23.0283V16.4848H21.3515V27.9483C18.7009 27.2856 15.3548 24.0719 15.2057 16.4848H10.6667Z" fill="#0007B4"/>
</svg>
