<svg width="48" height="48" viewBox="0 0 48 48" fill="none" xmlns="http://www.w3.org/2000/svg"><path fill-rule="evenodd" clip-rule="evenodd" d="M23.758 47.515c13.12 0 23.757-10.636 23.757-23.757C47.515 10.637 36.88 0 23.758 0 10.637 0 0 10.637 0 23.758c0 13.12 10.637 23.757 23.758 23.757Zm-13.091-31.03c.215 10.337 5.383 16.549 14.445 16.549h.514V27.12c3.33.331 5.847 2.767 6.857 5.914h4.705c-1.292-4.705-4.688-7.306-6.808-8.3 2.12-1.225 5.102-4.207 5.814-8.25H31.92c-.928 3.28-3.677 6.263-6.294 6.544v-6.543h-4.274v11.463c-2.651-.662-5.997-3.876-6.146-11.463h-4.54Z" fill="#030303"/></svg>