<svg width="49" height="48" viewBox="0 0 49 48" fill="none" xmlns="http://www.w3.org/2000/svg">
<path d="M31.4931 25.7522C31.1299 25.5704 29.3452 24.6924 29.0121 24.5712C28.6795 24.4499 28.4371 24.3893 28.1951 24.753C27.9532 25.1166 27.2574 25.9341 27.0456 26.1765C26.8337 26.4189 26.6218 26.449 26.2591 26.2672C25.896 26.0853 24.726 25.7023 23.3394 24.465C22.2601 23.5021 21.5314 22.3132 21.3195 21.9501C21.1076 21.5864 21.2967 21.3901 21.4785 21.2092C21.6419 21.0463 21.8417 20.785 22.023 20.5731C22.2043 20.3612 22.265 20.2095 22.3862 19.9675C22.5074 19.7251 22.4468 19.5132 22.3561 19.3314C22.2654 19.1496 21.5391 17.3624 21.2366 16.6356C20.9418 15.9278 20.6427 16.0238 20.4196 16.0126C20.2082 16.0019 19.9658 16 19.7239 16C19.4819 16 19.0887 16.0907 18.7556 16.4543C18.423 16.8179 17.4848 17.696 17.4848 19.4832C17.4848 21.2703 18.7857 22.9968 18.9675 23.2388C19.1488 23.4812 21.5275 27.1481 25.1697 28.721C26.0361 29.0953 26.712 29.3183 27.2395 29.4856C28.1093 29.7619 28.9006 29.7232 29.5265 29.6296C30.2242 29.5253 31.6744 28.7515 31.977 27.9035C32.2795 27.0555 32.2795 26.3282 32.1888 26.177C32.0982 26.0252 31.8562 25.9341 31.4931 25.7522Z" fill="#030303"/>
<path fill-rule="evenodd" clip-rule="evenodd" d="M24.2727 47.5152C37.3937 47.5152 48.0303 36.8785 48.0303 23.7576C48.0303 10.6366 37.3937 0 24.2727 0C11.1517 0 0.515137 10.6366 0.515137 23.7576C0.515137 36.8785 11.1517 47.5152 24.2727 47.5152ZM24.8647 8.24242C28.7517 8.24388 32.4002 9.75709 35.1435 12.5038C37.8873 15.2504 39.3971 18.9009 39.3947 22.784C39.3913 30.7952 32.8725 37.3139 24.8642 37.3139H24.8584C22.4269 37.313 20.0371 36.703 17.9149 35.5452L10.2121 37.5656L12.2737 30.0359C11.0024 27.8327 10.3333 25.3328 10.3343 22.7719C10.3372 14.7602 16.856 8.24242 24.8647 8.24242Z" fill="#030303"/>
</svg>
