<svg width="49" height="48" viewBox="0 0 49 48" fill="none" xmlns="http://www.w3.org/2000/svg"><path d="M31.493 25.752c-.363-.182-2.148-1.06-2.48-1.18-.334-.122-.576-.183-.818.181s-.938 1.181-1.15 1.424c-.211.242-.423.272-.786.09-.363-.182-1.533-.565-2.92-1.802-1.079-.963-1.808-2.152-2.02-2.515-.211-.364-.022-.56.16-.74.163-.164.363-.425.544-.637.181-.212.242-.364.363-.605.121-.243.06-.455-.03-.637-.09-.181-.817-1.969-1.12-2.695-.294-.708-.593-.612-.816-.623a13.963 13.963 0 0 0-.696-.013c-.242 0-.635.09-.968.454-.333.364-1.271 1.242-1.271 3.03 0 1.786 1.3 3.513 1.483 3.755.18.242 2.56 3.91 6.202 5.482.866.374 1.542.597 2.07.765.87.276 1.66.237 2.287.144.697-.105 2.147-.878 2.45-1.726.302-.849.302-1.576.212-1.727-.09-.152-.333-.243-.696-.425Z" fill="#030303"/><path fill-rule="evenodd" clip-rule="evenodd" d="M24.273 47.515c13.12 0 23.757-10.636 23.757-23.757C48.03 10.637 37.394 0 24.273 0 11.152 0 .515 10.637.515 23.758c0 13.12 10.637 23.757 23.758 23.757Zm.592-39.273a14.435 14.435 0 0 1 10.279 4.262 14.437 14.437 0 0 1 4.25 10.28c-.003 8.011-6.521 14.53-14.53 14.53h-.006a14.517 14.517 0 0 1-6.943-1.769l-7.703 2.02 2.062-7.53a14.506 14.506 0 0 1-1.94-7.263c.003-8.012 6.522-14.53 14.53-14.53Z" fill="#030303"/></svg>