<svg width="49" height="48" viewBox="0 0 49 48" fill="none" xmlns="http://www.w3.org/2000/svg">
<path d="M24.5152 0C11.2352 0 0.515152 10.72 0.515152 24C0.515152 37.28 11.2352 48 24.5152 48C37.7952 48 48.5152 37.28 48.5152 24C48.5152 10.72 37.7952 0 24.5152 0ZM38.0352 11.12L32.6752 36.32C32.5952 36.8 32.0352 37.04 31.5552 36.8L23.3152 31.28L18.9152 35.44C18.5152 35.76 17.9552 35.6 17.7952 35.12L14.9152 26.16L7.31515 23.04C6.75515 22.8 6.75515 21.84 7.31515 21.6L36.9952 10.32C37.5552 10.16 38.1152 10.56 38.0352 11.12Z" fill="#030303"/>
<path d="M18.6752 32.48L19.1552 27.84L32.5951 14.8L16.4352 25.44" fill="#030303"/>
</svg>
