<svg width="96" height="96" viewBox="0 0 96 96" fill="none" xmlns="http://www.w3.org/2000/svg">
<path d="M60 8H36C33.7909 8 32 9.79086 32 12V20C32 22.2091 33.7909 24 36 24H60C62.2091 24 64 22.2091 64 20V12C64 9.79086 62.2091 8 60 8Z" stroke="#0007B4" stroke-width="4" stroke-linecap="square"/>
<path d="M32 16H24C21.8783 16 19.8434 16.8429 18.3431 18.3431C16.8429 19.8434 16 21.8783 16 24V80C16 82.1217 16.8429 84.1566 18.3431 85.6569C19.8434 87.1571 21.8783 88 24 88H72C74.1217 88 76.1566 87.1571 77.6569 85.6569C79.1571 84.1566 80 82.1217 80 80V78" stroke="#0007B4" stroke-width="4" stroke-linecap="square"/>
<path d="M64 16H72C73.4029 16.0014 74.7808 16.3718 75.9953 17.0738C77.2099 17.7759 78.2185 18.7851 78.92 20" stroke="#0007B4" stroke-width="4" stroke-linecap="square"/>
<path d="M73.68 38.4399C74.4601 37.6599 75.3861 37.0411 76.4053 36.6189C77.4245 36.1968 78.5168 35.9795 79.62 35.9795C80.7232 35.9795 81.8155 36.1968 82.8347 36.6189C83.8539 37.0411 84.7799 37.6599 85.56 38.4399C86.34 39.22 86.9588 40.146 87.381 41.1652C87.8031 42.1844 88.0204 43.2768 88.0204 44.3799C88.0204 45.4831 87.8031 46.5754 87.381 47.5946C86.9588 48.6138 86.34 49.5399 85.56 50.3199L67.8 67.9999L52 71.9999L55.96 56.1999L73.68 38.4399Z" stroke="#0007B4" stroke-width="4" stroke-linecap="square"/>
<path d="M32 72H36" stroke="#0007B4" stroke-width="4" stroke-linecap="square"/>
</svg>
