<svg width="96" height="96" viewBox="0 0 96 96" fill="none" xmlns="http://www.w3.org/2000/svg">
<path d="M60.4167 51.4414L26.8169 85.0394C23.536 88.3201 18.2391 88.3201 14.9582 85.0394C14.1789 84.2611 13.5607 83.3369 13.1389 82.3195C12.7171 81.3021 12.5 80.2116 12.5 79.1103C12.5 78.009 12.7171 76.9185 13.1389 75.9011C13.5607 74.8837 14.1789 73.9595 14.9582 73.1812L48.5579 39.5833" stroke="#0007B4" stroke-width="4" stroke-linecap="square"/>
<path d="M73.5 62.4999L91.6667 44.3333" stroke="#0007B4" stroke-width="4" stroke-linecap="square"/>
<path d="M87.125 48.7499L81.9167 43.5416C79.4167 41.0416 78.0417 37.7083 78.0417 34.1666V30.5833L66.7083 19.1666C64.5569 17.0025 61.999 15.2848 59.1817 14.1121C56.3645 12.9394 53.3433 12.3349 50.2917 12.3333H37.5L41.3333 15.7499C44.0561 18.1641 46.2362 21.1278 47.7301 24.4459C49.2239 27.764 49.9976 31.3611 50 34.9999V41.4999L58.3333 49.8333H68.625L78.0417 57.7916" stroke="#0007B4" stroke-width="4" stroke-linecap="square"/>
</svg>
