<svg width="96" height="96" viewBox="0 0 96 96" fill="none" xmlns="http://www.w3.org/2000/svg">
<path d="M85 8L77 16M77 16L89 28L75 42L63 30M77 16L63 30M46.56 46.44C48.6254 48.4779 50.2672 50.9042 51.391 53.5792C52.5148 56.2542 53.0984 59.1251 53.1081 62.0265C53.1178 64.928 52.5535 67.8027 51.4477 70.4852C50.3418 73.1677 48.7162 75.6049 46.6646 77.6566C44.6129 79.7082 42.1757 81.3338 39.4932 82.4397C36.8107 83.5455 33.936 84.1098 31.0345 84.1001C28.1331 84.0904 25.2622 83.5068 22.5872 82.383C19.9122 81.2592 17.4859 79.6174 15.448 77.552C11.4405 73.4028 9.22305 67.8455 9.27317 62.0772C9.3233 56.3088 11.637 50.791 15.716 46.712C19.795 42.633 25.3128 40.3193 31.0812 40.2692C36.8495 40.219 42.4068 42.4365 46.556 46.444L46.56 46.44ZM46.56 46.44L63 30" stroke="#0007B4" stroke-width="4" stroke-linecap="round"/>
</svg>
