<svg width="49" height="48" viewBox="0 0 49 48" fill="none" xmlns="http://www.w3.org/2000/svg">
<path d="M24.5184 47.9968C11.2603 47.9968 0.515152 37.2516 0.515152 23.9984C0.515152 10.7419 11.2603 0 24.5184 0C37.7684 0 48.5152 10.7419 48.5152 23.9984C48.5152 37.2516 37.77 47.9968 24.5184 47.9968ZM24.5152 14.6633C26.092 14.6633 27.3739 15.9467 27.3739 17.522C27.3739 19.1003 26.092 20.3823 24.5152 20.3823C22.9369 20.3823 21.6549 19.1003 21.6549 17.522C21.6549 15.9438 22.9369 14.6633 24.5152 14.6633ZM31.4222 17.522C31.4222 13.7123 28.3264 10.6121 24.5152 10.6121C20.7039 10.6121 17.6052 13.7123 17.6052 17.522C17.6052 21.3318 20.7039 24.4291 24.5152 24.4291C28.3264 24.4291 31.4222 21.3318 31.4222 17.522ZM27.3089 30.0657C28.7166 29.742 30.0723 29.1899 31.321 28.4051C32.2677 27.8082 32.5539 26.558 31.9584 25.6128C31.36 24.6661 30.1144 24.3799 29.1661 24.9754C26.3333 26.756 22.6912 26.756 19.8613 24.9754C18.9147 24.3814 17.663 24.6661 17.0705 25.6128C16.4736 26.5565 16.7597 27.8082 17.7035 28.4051C18.9522 29.1884 20.3094 29.7463 21.7156 30.0657L17.8524 33.9275C17.0632 34.7181 17.0632 36.003 17.8524 36.7906C18.2455 37.1838 18.7643 37.3832 19.2832 37.3832C19.8021 37.3832 20.3209 37.1838 20.7155 36.7906L24.5094 32.9953L28.3061 36.7921C29.0967 37.5812 30.3787 37.5812 31.1664 36.7921C31.9598 36.0015 31.9598 34.7167 31.1664 33.9304L27.3089 30.0657Z" fill="#030303"/>
</svg>
